<svg width="0" height="0" class="hidden">
<symbol width="16" height="16" viewBox="0 0 24 24" fill="none" xmlns="http://www.w3.org/2000/svg" id="search">
<path d="M21 21L16.66 16.66M19 11C19 15.4183 15.4183 19 11 19C6.58172 19 3 15.4183 3 11C3 6.58172 6.58172 3 11 3C15.4183 3 19 6.58172 19 11Z" stroke="currentColor" stroke-width="2" stroke-linecap="round" stroke-linejoin="round"/>
</symbol>


<symbol width="16" height="16" viewBox="0 0 24 24" fill="none" xmlns="http://www.w3.org/2000/svg"  id="cart">
<path d="M2.0498 2.04999H4.0498L6.7098 14.47C6.80738 14.9248 7.06048 15.3315 7.42552 15.6198C7.79056 15.9082 8.24471 16.0603 8.7098 16.05H18.4898C18.945 16.0493 19.3863 15.8933 19.7408 15.6078C20.0954 15.3224 20.3419 14.9245 20.4398 14.48L22.0898 7.04999H5.1198M8.9998 21C8.9998 21.5523 8.55209 22 7.9998 22C7.44752 22 6.9998 21.5523 6.9998 21C6.9998 20.4477 7.44752 20 7.9998 20C8.55209 20 8.9998 20.4477 8.9998 21ZM19.9998 21C19.9998 21.5523 19.5521 22 18.9998 22C18.4475 22 17.9998 21.5523 17.9998 21C17.9998 20.4477 18.4475 20 18.9998 20C19.5521 20 19.9998 20.4477 19.9998 21Z" stroke="currentColor" stroke-width="2" stroke-linecap="round" stroke-linejoin="round"/>
</symbol>


<symbol width="16" height="16" viewBox="0 0 24 24" fill="none" xmlns="http://www.w3.org/2000/svg"  id="profile">
<path d="M18 20C18 18.4087 17.3679 16.8826 16.2426 15.7574C15.1174 14.6321 13.5913 14 12 14M12 14C10.4087 14 8.88258 14.6321 7.75736 15.7574C6.63214 16.8826 6 18.4087 6 20M12 14C14.2091 14 16 12.2091 16 10C16 7.79086 14.2091 6 12 6C9.79086 6 8 7.79086 8 10C8 12.2091 9.79086 14 12 14ZM22 12C22 17.5228 17.5228 22 12 22C6.47715 22 2 17.5228 2 12C2 6.47715 6.47715 2 12 2C17.5228 2 22 6.47715 22 12Z" stroke="currentColor" stroke-width="2" stroke-linecap="round" stroke-linejoin="round"/>
</symbol>

</svg>