<svg width="64" height="17" viewBox="0 0 64 17" fill="none" xmlns="http://www.w3.org/2000/svg">
<path d="M1.87188 16.08L4.03188 11.352H12.8639L15.0239 16.08H16.9439L9.64788 -1.38283e-05H7.27188L-0.000117179 16.08H1.87188ZM7.48788 3.71999L8.35188 1.63199H8.49588L9.38388 3.71999L12.1679 9.81599H4.72788L7.48788 3.71999ZM25.0516 16.08L30.7156 4.22399H28.8676L24.0916 14.4H23.9476L19.1476 4.22399H17.2996L22.9636 16.08H25.0516ZM34.102 2.71199V-1.38283e-05H32.398V2.71199H34.102ZM34.102 16.08V4.22399H32.398V16.08H34.102ZM42.7763 16.32C46.6643 16.32 49.2323 13.752 49.2323 10.152C49.2323 6.55199 46.6643 3.98399 42.7763 3.98399C38.9123 3.98399 36.3443 6.55199 36.3443 10.152C36.3443 13.752 38.9123 16.32 42.7763 16.32ZM42.7763 14.784C39.5123 14.784 38.0243 13.032 38.0243 10.152C38.0243 7.29599 39.5123 5.51999 42.7763 5.51999C46.0403 5.51999 47.5523 7.29599 47.5523 10.152C47.5523 13.032 46.0403 14.784 42.7763 14.784ZM53.2036 16.08V10.344C53.2036 7.29599 54.7156 5.54399 57.5956 5.54399C60.3076 5.54399 61.4836 6.95999 61.4836 9.40799V16.08H63.1876V9.16799C63.1876 6.35999 61.5316 3.98399 58.1956 3.98399C55.2436 3.98399 53.5636 5.92799 53.1556 7.94399H53.0356V4.22399H51.4996V16.08H53.2036Z" fill="#22202E"/>
</svg>
